<svg width="24" height="24" viewBox="0 0 24 24" fill="none" xmlns="http://www.w3.org/2000/svg">
<rect width="24" height="24" rx="4" fill="#21D4B4"/>
<path d="M12.0001 20.9582C7.05841 20.9582 3.04175 16.9415 3.04175 11.9998C3.04175 7.05817 7.05841 3.0415 12.0001 3.0415C16.9417 3.0415 20.9584 7.05817 20.9584 11.9998C20.9584 16.9415 16.9417 20.9582 12.0001 20.9582ZM12.0001 4.2915C7.75008 4.2915 4.29175 7.74984 4.29175 11.9998C4.29175 16.2498 7.75008 19.7082 12.0001 19.7082C16.2501 19.7082 19.7084 16.2498 19.7084 11.9998C19.7084 7.74984 16.2501 4.2915 12.0001 4.2915Z" fill="white"/>
<path d="M10.8167 14.9832C10.65 14.9832 10.4917 14.9165 10.375 14.7998L8.0167 12.4415C7.77503 12.1998 7.77503 11.7998 8.0167 11.5582C8.25837 11.3165 8.65837 11.3165 8.90003 11.5582L10.8167 13.4748L15.1 9.1915C15.3417 8.94984 15.7417 8.94984 15.9834 9.1915C16.225 9.43317 16.225 9.83317 15.9834 10.0748L11.2584 14.7998C11.1417 14.9165 10.9834 14.9832 10.8167 14.9832Z" fill="white"/>
</svg>
